<svg width="33" height="32" viewBox="0 0 33 32" fill="none" xmlns="http://www.w3.org/2000/svg">
<g clip-path="url(#clip0_6384_216)">
<path d="M22.0873 4C19.768 4 17.542 5.08 16.0891 6.78667C14.6362 5.08 12.4101 4 10.0908 4C5.98537 4 2.75964 7.22667 2.75964 11.3333C2.75964 16.3733 7.29165 20.48 14.1563 26.72L16.0891 28.4667L18.0218 26.7067C24.8865 20.48 29.4185 16.3733 29.4185 11.3333C29.4185 7.22667 26.1928 4 22.0873 4ZM16.2224 24.7333L16.0891 24.8667L15.9558 24.7333C9.61097 18.9867 5.42553 15.1867 5.42553 11.3333C5.42553 8.66667 7.42494 6.66667 10.0908 6.66667C12.1436 6.66667 14.143 7.98667 14.8494 9.81333H17.342C18.0352 7.98667 20.0346 6.66667 22.0873 6.66667C24.7532 6.66667 26.7526 8.66667 26.7526 11.3333C26.7526 15.1867 22.5672 18.9867 16.2224 24.7333Z" fill="#A9C7DB"/>
</g>
<defs>
<clipPath id="clip0_6384_216">
<rect width="31.9906" height="32" fill="white" transform="translate(0.09375)"/>
</clipPath>
</defs>
</svg>
