<svg width="19" height="18" viewBox="0 0 19 18" fill="none" xmlns="http://www.w3.org/2000/svg">
<g clip-path="url(#clip0_6384_187)">
<path d="M15.4759 11.535C14.5534 11.535 13.6609 11.385 12.8284 11.115C12.5659 11.025 12.2734 11.0925 12.0709 11.295L10.8934 12.7725C8.77088 11.76 6.78338 9.8475 5.72588 7.65L7.18838 6.405C7.39088 6.195 7.45088 5.9025 7.36838 5.64C7.09088 4.8075 6.94838 3.915 6.94838 2.9925C6.94838 2.5875 6.61088 2.25 6.20588 2.25H3.61088C3.20588 2.25 2.71838 2.43 2.71838 2.9925C2.71838 9.96 8.51588 15.75 15.4759 15.75C16.0084 15.75 16.2184 15.2775 16.2184 14.865V12.2775C16.2184 11.8725 15.8809 11.535 15.4759 11.535Z" fill="#0179CB"/>
</g>
<defs>
<clipPath id="clip0_6384_187">
<rect width="18" height="18" fill="white" transform="translate(0.468384)"/>
</clipPath>
</defs>
</svg>
